<?xml version="1.0" standalone="no"?>
<!DOCTYPE svg PUBLIC "-//W3C//DTD SVG 20010904//EN"
 "http://www.w3.org/TR/2001/REC-SVG-20010904/DTD/svg10.dtd">
<svg version="1.0" xmlns="http://www.w3.org/2000/svg"
 width="512.000000pt" height="512.000000pt" viewBox="0 0 512.000000 512.000000"
 preserveAspectRatio="xMidYMid meet">
<metadata>
Created by potrace 1.14, written by Peter Selinger 2001-2017
</metadata>
<g transform="translate(0.000000,512.000000) scale(0.100000,-0.100000)"
fill="#000000" stroke="none">
<path d="M0 3920 l0 -1200 2008 0 c1662 1 2022 3 2097 15 368 57 703 296 873
622 104 199 142 366 137 598 -5 257 -82 478 -245 700 -8 11 -58 63 -110 115
-162 163 -345 264 -580 323 -85 21 -87 21 -2132 24 l-2048 4 0 -1201z m4099
532 c80 -29 194 -106 243 -165 83 -100 128 -214 133 -337 4 -105 -8 -175 -45
-257 -66 -145 -170 -240 -329 -302 l-66 -26 -1697 -3 -1698 -2 0 560 0 560
1698 -2 1697 -3 64 -23z"/>
<path d="M0 1200 l0 -1200 2008 0 c2126 1 2096 0 2242 46 30 10 57 19 60 20 3
1 16 5 30 10 67 21 228 111 307 172 178 139 311 314 393 522 99 249 101 591 5
845 -144 382 -457 656 -865 758 -85 21 -85 21 -2132 24 l-2048 3 0 -1200z
m4030 549 c158 -29 314 -150 389 -302 47 -97 60 -161 56 -277 -5 -140 -58
-261 -163 -366 -57 -57 -163 -122 -227 -139 -16 -5 -37 -11 -45 -14 -8 -3
-777 -7 -1707 -8 l-1693 -3 0 560 0 560 1668 0 c1082 -1 1686 -5 1722 -11z"/>
</g>
</svg>
